<?xml version="1.0" encoding="UTF-8"?>
<svg width="46px" height="37px" viewBox="0 0 46 37" version="1.1" xmlns="http://www.w3.org/2000/svg" xmlns:xlink="http://www.w3.org/1999/xlink">
  <!-- Generator: Sketch 57.1 (83088) - https://sketch.com -->
  <title>“ copy</title>
  <desc>Created with Sketch.</desc>
  <g id="Tina's-Portfolio" stroke="none" stroke-width="1" fill="none" fill-rule="evenodd">
    <g id="Project---ishare" transform="translate(-1147.000000, -5243.000000)" fill="#F8DBCF">
      <g id="Group-8-Copy-2" transform="translate(753.000000, 5070.000000)">
        <path d="M411.083333,173 L413.861111,176.325843 C406.916667,180.205993 403.305556,184.779026 403.305556,189.629213 C403.305556,191.846442 403.444444,191.985019 407.75,192.955056 C411.5,193.925094 414,197.11236 414,200.992509 C414,206.11985 409.833333,210 404.555556,210 C398.444444,210 394,204.734082 394,197.52809 C394,187.273408 400.388889,177.988764 411.083333,173 Z M437.083333,173 L439.861111,176.325843 C432.916667,180.205993 429.305556,184.779026 429.305556,189.629213 C429.305556,191.846442 429.444444,191.985019 433.75,192.955056 C437.5,193.925094 440,197.11236 440,200.992509 C440,206.11985 435.833333,210 430.555556,210 C424.444444,210 420,204.734082 420,197.52809 C420,187.273408 426.388889,177.988764 437.083333,173 Z" id="“-copy" transform="translate(417.000000, 191.500000) scale(-1, -1) translate(-417.000000, -191.500000) "></path>
      </g>
    </g>
  </g>
</svg>