<?xml version="1.0" encoding="UTF-8"?>
<svg width="46px" height="37px" viewBox="0 0 46 37" version="1.1" xmlns="http://www.w3.org/2000/svg" xmlns:xlink="http://www.w3.org/1999/xlink">
  <!-- Generator: Sketch 57.1 (83088) - https://sketch.com -->
  <title>“</title>
  <desc>Created with Sketch.</desc>
  <g id="Tina's-Portfolio" stroke="none" stroke-width="1" fill="none" fill-rule="evenodd">
    <g id="Project---ishare" transform="translate(-813.000000, -5122.000000)" fill="#F8DBCF">
      <g id="Group-8-Copy-2" transform="translate(753.000000, 5070.000000)">
        <path d="M77.0833333,52 L79.8611111,55.3258427 C72.9166667,59.2059925 69.3055556,63.7790262 69.3055556,68.6292135 C69.3055556,70.8464419 69.4444444,70.9850187 73.75,71.9550562 C77.5,72.9250936 80,76.1123596 80,79.9925094 C80,85.1198502 75.8333333,89 70.5555556,89 C64.4444444,89 60,83.7340824 60,76.5280899 C60,66.2734082 66.3888889,56.988764 77.0833333,52 Z M103.083333,52 L105.861111,55.3258427 C98.9166667,59.2059925 95.3055556,63.7790262 95.3055556,68.6292135 C95.3055556,70.8464419 95.4444444,70.9850187 99.75,71.9550562 C103.5,72.9250936 106,76.1123596 106,79.9925094 C106,85.1198502 101.833333,89 96.5555556,89 C90.4444444,89 86,83.7340824 86,76.5280899 C86,66.2734082 92.3888889,56.988764 103.083333,52 Z" id="“"></path>
      </g>
    </g>
  </g>
</svg>